#!OML:ASF X:\für Bonn\!DataBase\2005_08_10_Bjorn_Final\c3d\bjorn.ASF
:FULLY-SPECIFIED
:DEGREES
815
root -1.33865 1.4678 21.3692 -445.261 -175.146 8.61946
lowerback -5.45962 -1.18177 -7.46551
upperback 1.58485 -0.98482 -3.16478
thorax 4.7964 -0.69664 0.789797
lowerneck -14.6045 -4.81443 -1.47528
upperneck 2.14513 -6.69939 4.22903
head 3.51493 -3.26121 1.14888
rclavicle 2.94201e-014 -3.8266e-014
rhumerus -238.06 -126.713 184.583
rradius 11.2662
rwrist 90.2042
rhand -15.2822 0.407488
rfingers 7.12502
rthumb 10.8926 -29.29
lclavicle 2.94201e-014 -3.8266e-014
lhumerus -387.177 52.5159 -344.296
lradius 12.5422
lwrist -92.7996
lhand -19.8248 6.69255
lfingers 7.12502
lthumb 6.50899 36.5725
rfemur -193.948 -155.097 187.201
rtibia 31.0297
rfoot 4.34125 -11.482
rtoes 14.4915
lfemur -12.5689 3.072 -21.2961
ltibia 22.5842
lfoot 9.36733 6.34229
ltoes -0.560032
816
root -1.33842 1.46801 21.3689 -445.284 -175.164 8.6292
lowerback -5.42633 -1.19101 -7.4652
upperback 1.58579 -1.00009 -3.14432
thorax 4.77993 -0.703496 0.810201
lowerneck -14.6237 -4.80397 -1.46041
upperneck 2.16173 -6.68266 4.17897
head 3.52096 -3.25365 1.13038
rclavicle 3.18055e-015 2.90226e-014
rhumerus -238.023 -126.702 184.565
rradius 11.2754
rwrist 90.1979
rhand -15.2462 0.37361
rfingers 7.12502
rthumb 10.9273 -29.322
lclavicle 3.18055e-015 2.90226e-014
lhumerus -387.196 52.3699 -344.249
lradius 12.579
lwrist -92.6426
lhand -19.819 6.75946
lfingers 7.12502
lthumb 6.51458 36.6393
rfemur -193.914 -155.101 187.211
rtibia 31.0217
rfoot 4.31938 -11.4769
rtoes 14.4562
lfemur -12.5515 3.12498 -21.2779
ltibia 22.5958
lfoot 9.38643 6.2952
ltoes -0.60432
817
root -1.33892 1.4678 21.3689 -445.296 -175.183 8.63185
lowerback -5.39536 -1.20396 -7.47395
upperback 1.57371 -1.02021 -3.11391
thorax 4.75184 -0.712354 0.845762
lowerneck -14.6368 -4.79973 -1.48367
upperneck 2.19151 -6.67035 4.16449
head 3.53404 -3.24698 1.13016
rclavicle 2.14687e-014 -3.70733e-014
rhumerus -237.943 -126.709 184.533
rradius 11.2766
rwrist 90.2114
rhand -15.2035 0.411236
rfingers 7.12502
rthumb 10.9685 -29.2822
lclavicle 2.14687e-014 -3.70733e-014
lhumerus -387.349 52.4671 -344.37
lradius 12.5917
lwrist -92.7476
lhand -19.8626 6.79119
lfingers 7.12502
lthumb 6.4725 36.6723
rfemur -193.895 -155.09 187.225
rtibia 31.0126
rfoot 4.33114 -11.4711
rtoes 14.4497
lfemur -12.5436 3.12433 -21.2573
ltibia 22.6062
lfoot 9.38088 6.2916
ltoes -0.578316
818
root -1.33896 1.46775 21.3687 -445.317 -175.202 8.63395
lowerback -5.38033 -1.21271 -7.46546
upperback 1.59537 -1.03212 -3.10168
thorax 4.76702 -0.718629 0.85251
lowerneck -14.6971 -4.79222 -1.46593
upperneck 2.1997 -6.66224 4.14427
head 3.54661 -3.24294 1.11952
rclavicle -2.3059e-014 5.86415e-014
rhumerus -237.95 -126.639 184.561
rradius 11.2723
rwrist 90.2658
rhand -15.1857 0.387835
rfingers 7.12502
rthumb 10.9856 -29.3047
lclavicle -2.3059e-014 5.86415e-014
lhumerus -387.379 52.4988 -344.394
lradius 12.5809
lwrist -92.6807
lhand -19.9328 6.82726
lfingers 7.12502
lthumb 6.40467 36.7104
rfemur -193.866 -155.095 187.236
rtibia 31.0054
rfoot 4.32062 -11.4811
rtoes 14.3877
lfemur -12.5269 3.13852 -21.2345
ltibia 22.6162
lfoot 9.37248 6.32009
ltoes -0.421913
819
root -1.33898 1.46776 21.3687 -445.328 -175.221 8.63619
lowerback -5.35393 -1.21827 -7.46051
upperback 1.58479 -1.04298 -3.08339
thorax 4.74189 -0.722752 0.868636
lowerneck -14.6839 -4.7881 -1.48524
upperneck 2.19815 -6.65265 4.14709
head 3.54422 -3.23812 1.12499
rclavicle 4.77083e-015 1.56046e-014
rhumerus -238.087 -126.548 184.773
rradius 11.2584
rwrist 90.4435
rhand -15.1663 0.383729
rfingers 7.12502
rthumb 11.0044 -29.3078
lclavicle 4.77083e-015 1.56046e-014
lhumerus -387.436 52.4916 -344.429
lradius 12.5849
lwrist -92.6663
lhand -19.9468 6.83364
lfingers 7.12502
lthumb 6.39116 36.7172
rfemur -193.848 -155.099 187.253
rtibia 30.9982
rfoot 4.31919 -11.4831
rtoes 14.451
lfemur -12.5185 3.13672 -21.2124
ltibia 22.6244
lfoot 9.37307 6.32283
ltoes -0.359712
